<svg width="30" height="30" viewBox="0 0 30 30" fill="none" xmlns="http://www.w3.org/2000/svg">
<g clip-path="url(#clip0_43_3)">
<path d="M0.830168 0.826698C-0.276723 1.92899 -0.276723 3.71612 0.830168 4.81841L10.9916 14.9376L0.830168 25.057C-0.276723 26.1592 -0.276723 27.9465 0.830168 29.0487C1.93703 30.1509 3.73164 30.1509 4.83851 29.0487L14.9999 18.9293L25.1616 29.0487C26.2684 30.1509 28.0631 30.1509 29.1699 29.0487C30.2767 27.9465 30.2767 26.1592 29.1699 25.057L19.0083 14.9376L29.1699 4.81844C30.2767 3.71618 30.2767 1.92902 29.1699 0.826755C28.0628 -0.275538 26.2684 -0.275538 25.1616 0.826755L14.9999 10.946L4.83851 0.826698C3.73164 -0.275566 1.93703 -0.275566 0.830168 0.826698Z" fill="#C8C8C8"/>
</g>
<defs>
<clipPath id="clip0_43_3">
<rect width="30" height="30" fill="white"/>
</clipPath>
</defs>
</svg>
