<svg width="20" height="20" viewBox="0 0 20 20" fill="none" xmlns="http://www.w3.org/2000/svg">
<path d="M8.83341 18.6667C6.53224 18.6667 4.66675 16.8012 4.66675 14.5C4.66675 14.0398 5.03984 13.6667 5.50008 13.6667C5.96032 13.6667 6.33342 14.0398 6.33342 14.5C6.33342 15.8807 7.45274 17 8.83341 17H12.1667C13.5475 17 14.6667 15.8807 14.6667 14.5L14.6667 6.16667C14.6667 4.78592 13.5475 3.66667 12.1667 3.66667L8.83341 3.66667C7.45274 3.66667 6.33342 4.78592 6.33342 6.16667C6.33342 6.62692 5.96032 7.00001 5.50008 7.00001C5.03984 7.00001 4.66675 6.62692 4.66675 6.16667C4.66675 3.86551 6.53224 2.00001 8.83341 2.00001H12.1667C14.4679 2.00001 16.3334 3.86551 16.3334 6.16667V14.5C16.3334 16.8012 14.4679 18.6667 12.1667 18.6667H8.83341Z" fill="#C8C8C8"/>
<path d="M3.83334 9.83339C3.37309 9.83339 3.00001 10.2065 3.00001 10.6667C3.00001 11.127 3.37309 11.5001 3.83334 11.5001V9.83339Z" fill="#C8C8C8"/>
<path d="M10.7351 9.83339C10.6609 9.74189 10.5898 9.65314 10.5226 9.56839C10.318 9.31031 10.1448 9.08372 10.0225 8.9213C9.96131 8.84001 9.91271 8.77461 9.87916 8.72916L9.84035 8.67641L9.82995 8.66217L9.82626 8.65712C9.82623 8.65707 9.82585 8.65654 10.5 8.16672L9.82626 8.65712C9.55575 8.28478 9.63786 7.76306 10.0102 7.49254C10.3825 7.22203 10.9036 7.30456 11.1742 7.67685L11.1765 7.68007L11.185 7.69174L11.2198 7.73905C11.2506 7.78074 11.2961 7.842 11.354 7.91881C11.4698 8.07257 11.6343 8.28791 11.8286 8.53286C12.2213 9.02814 12.7186 9.62347 13.1726 10.0775L13.7619 10.6667L13.1726 11.256C12.7186 11.71 12.2213 12.3053 11.8286 12.8006C11.6343 13.0456 11.4698 13.2609 11.354 13.4146C11.2961 13.4915 11.2506 13.5527 11.2198 13.5944L11.185 13.6417L11.1765 13.6534L11.1746 13.6561C10.904 14.0283 10.3825 14.1114 10.0102 13.8409C9.63786 13.5704 9.55532 13.0492 9.82585 12.6769L10.5 13.1667C9.82585 12.6769 9.82581 12.677 9.82585 12.6769L9.82995 12.6713L9.84035 12.6571L9.87916 12.6043C9.91271 12.5588 9.96131 12.4935 10.0225 12.4121C10.1448 12.2497 10.318 12.0231 10.5226 11.7651C10.5898 11.6803 10.6609 11.5916 10.7351 11.5001H3.83336V9.83339H10.7351Z" fill="#C8C8C8"/>
</svg>
