<svg width="30" height="30" viewBox="0 0 30 30" fill="none" xmlns="http://www.w3.org/2000/svg">
<g clip-path="url(#clip0_43_127)">
<path d="M12.8711 2.94062C14.0134 1.68646 15.9866 1.68646 17.1289 2.94062L18.1878 4.10332C18.7649 4.73716 19.5946 5.08083 20.451 5.04081L22.0219 4.9674C23.7163 4.8882 25.1118 6.2836 25.0325 7.97806L24.9592 9.54896C24.9192 10.4053 25.2628 11.235 25.8966 11.8122L27.0593 12.8711C28.3136 14.0134 28.3136 15.9866 27.0593 17.1289L25.8966 18.1878C25.2628 18.7649 24.9192 19.5946 24.9592 20.451L25.0325 22.0219C25.1118 23.7163 23.7163 25.1118 22.0219 25.0325L20.451 24.9592C19.5946 24.9192 18.7649 25.2628 18.1878 25.8966L17.1289 27.0593C15.9866 28.3136 14.0134 28.3136 12.8711 27.0593L11.8122 25.8966C11.235 25.2628 10.4053 24.9192 9.54894 24.9592L7.97806 25.0325C6.2836 25.1118 4.8882 23.7163 4.9674 22.0219L5.04081 20.451C5.08083 19.5946 4.73716 18.7649 4.10332 18.1878L2.94062 17.1289C1.68646 15.9866 1.68646 14.0134 2.94062 12.8711L4.10332 11.8122C4.73716 11.235 5.08083 10.4053 5.04081 9.54894L4.9674 7.97806C4.8882 6.2836 6.2836 4.8882 7.97806 4.9674L9.54894 5.04081C10.4053 5.08083 11.235 4.73716 11.8122 4.10332L12.8711 2.94062Z" stroke="#C8C8C8" stroke-width="3"/>
<path d="M15 19C17.2091 19 19 17.2091 19 15C19 12.7909 17.2091 11 15 11C12.7909 11 11 12.7909 11 15C11 17.2091 12.7909 19 15 19Z" stroke="#C8C8C8" stroke-width="3"/>
</g>
<defs>
<clipPath id="clip0_43_127">
<rect width="30" height="30" fill="white"/>
</clipPath>
</defs>
</svg>
